<svg width="1200" height="900" viewBox="0 0 1200 900" fill="none" xmlns="http://www.w3.org/2000/svg">
  <rect width="1200" height="900" fill="#171B30"/>
  <rect x="84" y="84" width="1032" height="732" rx="34" fill="#1F2750"/>
  <circle cx="904" cy="244" r="142" fill="#A49AF4" fill-opacity="0.18"/>
  <circle cx="312" cy="666" r="176" fill="#F0BEDA" fill-opacity="0.16"/>
  <path d="M260 246C356 198 489 187 608 240C727 293 826 392 846 502C866 612 782 683 647 700C512 717 324 680 242 573C160 466 164 294 260 246Z" fill="#FBFBFF"/>
  <path d="M364 298C436 266 525 261 600 291C675 321 738 388 752 459C766 530 730 601 648 631C566 661 439 649 364 596C289 543 264 469 277 403C290 337 292 330 364 298Z" fill="#ECE8FF"/>
  <path d="M472 382C507 354 579 348 631 373C683 398 719 450 709 501C699 552 644 583 578 588C512 593 430 573 397 531C364 489 381 454 396 430C411 406 437 410 472 382Z" fill="#1D2A52"/>
</svg>
